<svg xmlns="http://www.w3.org/2000/svg" version="1.1" xmlns:xlink="http://www.w3.org/1999/xlink" xmlns:svgjs="http://svgjs.com/svgjs" width="512" height="512" x="0" y="0" viewBox="0 0 512 512" style="enable-background:new 0 0 512 512" xml:space="preserve" class=""><g>
<g xmlns="http://www.w3.org/2000/svg">
	<g>
		<path d="M335.169,100c-5.52,0-10,4.48-10,10s4.48,10,10,10c5.52,0,10-4.48,10-10S340.689,100,335.169,100z" fill="#78ddff" data-original="#000000"></path>
	</g>
</g>
<g xmlns="http://www.w3.org/2000/svg">
	<g>
		<path d="M481.076,31.931c-2.573-1.882-5.891-2.426-8.929-1.463l-82.95,26.298c-4.403,0.899-8.896,1.203-13.364,0.907    c-4.54-0.302-9.019-1.225-13.315-2.742L254.087,16.66C222.769,5.605,190.046,0,156.829,0c-30.748,0-60.592,10.942-84.034,30.81    c-23.452,19.864-39.149,47.5-44.2,77.813c-1.172,7.023-1.766,14.215-1.766,21.377s0.594,14.354,1.766,21.372    c4.758,28.591,19.107,54.972,40.472,74.525l11.624,24.115c29.937,62.106,50.737,127.351,61.827,193.936    c1.178,7.011,4.809,13.388,10.201,17.937c3.615,3.068,7.893,5.209,12.451,6.294V482c0,16.542,13.458,30,30,30s30-13.458,30-30    v-13.335c10.988-1.626,20.301-9.222,23.97-19.955c6.755-17.667,10.04-34.342,10.04-50.97c0-21.47-5.53-42.229-16.897-63.448    c-0.003-0.005-0.006-0.011-0.009-0.016c-0.015-0.029-0.031-0.057-0.046-0.085c-1.893-3.542-3.988-7.153-6.222-10.724    c-4.645-7.445-7.21-15.988-7.418-24.705c-0.001-0.055-0.003-0.108-0.005-0.162c-0.015-0.365-0.022-0.724-0.022-1.09    c0-3.148,0.311-6.325,0.922-9.443c0.024-0.124,0.046-0.248,0.066-0.373l6.059-38.514c6.168-1.726,12.36-3.68,18.481-5.839    l108.433-38.271c4.294-1.517,8.773-2.439,13.313-2.741c0.001,0,0.001,0,0.002,0c4.466-0.296,8.958,0.008,13.362,0.907    l82.95,26.298c3.04,0.963,6.356,0.42,8.929-1.463c2.573-1.884,4.093-4.881,4.093-8.069V40    C485.169,36.812,483.648,33.814,481.076,31.931z M205.169,482c0,5.514-4.486,10-10,10c-5.514,0-10-4.486-10-10v-13h20V482z     M239.18,397.74c-0.001,14.196-2.875,28.588-8.787,43.998c-0.054,0.14-0.104,0.281-0.151,0.423    c-1.362,4.091-5.177,6.839-9.492,6.839h-5.58h-40h-3.06c-2.362,0-4.653-0.84-6.472-2.384c-1.796-1.516-3.003-3.641-3.394-5.969    c-11.017-66.15-31.356-131.008-60.477-192.893c17.119,8,35.916,12.245,55.063,12.245c16.485,0,33.084-1.411,49.337-4.193    c2.809-0.481,5.609-1.018,8.401-1.58l-4.748,30.179c-0.294,1.522-0.519,3.057-0.71,4.595h-13.94c-16.542,0-30,13.458-30,30    s13.458,30,30,30h32.156C235.285,365.397,239.18,381.396,239.18,397.74z M216.182,329h-21.013c-5.514,0-10-4.486-10-10    c0-5.514,4.486-10,10-10h14.366C210.708,315.949,212.949,322.696,216.182,329z M365.169,183.632    c-3.155,0.643-6.266,1.503-9.309,2.578l-10.691,3.773V150c0-5.522-4.477-10-10-10s-10,4.478-10,10v47.042l-77.737,27.437    c-7.677,2.708-15.469,5.073-23.184,7.036c-6.993,1.798-14.212,3.338-21.457,4.578C187.65,238.686,172.186,240,156.829,240    c-26.018,0-51.27-9.258-71.149-26.106c-0.457-0.382-0.908-0.775-1.358-1.167l-0.229-0.198c-0.073-0.069-0.148-0.137-0.224-0.204    c-18.8-16.654-31.424-39.467-35.547-64.24c-0.991-5.938-1.494-12.022-1.494-18.084s0.502-12.146,1.494-18.087    c4.273-25.651,17.555-49.035,37.401-65.844C105.56,29.258,130.812,20,156.829,20c30.944,0,61.427,5.222,90.602,15.52    l108.427,38.27c3.044,1.076,6.156,1.936,9.311,2.58V183.632z M465.169,206.339l-70.408-22.321c-0.306-0.098-0.616-0.18-0.93-0.246    c-2.863-0.613-5.756-1.035-8.662-1.286V77.514c2.905-0.251,5.798-0.673,8.662-1.286c0.314-0.066,0.625-0.148,0.93-0.246    l70.408-22.321V206.339z" fill="#78ddff" data-original="#000000"></path>
	</g>
</g>
<g xmlns="http://www.w3.org/2000/svg">
	<g>
		<path d="M221.188,106.672c-0.033-0.096-0.077-0.184-0.113-0.277c-0.034-0.095-0.072-0.188-0.106-0.283    c-0.001-0.001-0.001-0.003-0.002-0.004C210.953,78.506,184.594,60,155.169,60c-38.598,0-70,31.402-70,70c0,38.598,31.402,70,70,70    c29.42,0,55.775-18.5,65.793-46.093c0.022-0.052,0.039-0.108,0.06-0.16c0.056-0.139,0.116-0.275,0.166-0.417    c2.641-7.481,3.98-15.331,3.98-23.329S223.829,114.153,221.188,106.672z M204.164,140h-48.995c-5.523,0-10,4.478-10,10    c0,5.522,4.477,10,10,10h40.002c-9.279,12.345-24.006,20-40.002,20c-27.57,0-50-22.43-50-50s22.43-50,50-50    c15.996,0,30.723,7.655,40.002,20h-40.002c-5.523,0-10,4.478-10,10c0,5.522,4.477,10,10,10h48.995    c0.663,3.272,1.005,6.615,1.005,10S204.826,136.728,204.164,140z" fill="#78ddff" data-original="#000000"></path>
	</g>
</g>
<g xmlns="http://www.w3.org/2000/svg">
</g>
<g xmlns="http://www.w3.org/2000/svg">
</g>
<g xmlns="http://www.w3.org/2000/svg">
</g>
<g xmlns="http://www.w3.org/2000/svg">
</g>
<g xmlns="http://www.w3.org/2000/svg">
</g>
<g xmlns="http://www.w3.org/2000/svg">
</g>
<g xmlns="http://www.w3.org/2000/svg">
</g>
<g xmlns="http://www.w3.org/2000/svg">
</g>
<g xmlns="http://www.w3.org/2000/svg">
</g>
<g xmlns="http://www.w3.org/2000/svg">
</g>
<g xmlns="http://www.w3.org/2000/svg">
</g>
<g xmlns="http://www.w3.org/2000/svg">
</g>
<g xmlns="http://www.w3.org/2000/svg">
</g>
<g xmlns="http://www.w3.org/2000/svg">
</g>
<g xmlns="http://www.w3.org/2000/svg">
</g>
</g></svg>