<svg xmlns="http://www.w3.org/2000/svg" version="1.1" xmlns:xlink="http://www.w3.org/1999/xlink" xmlns:svgjs="http://svgjs.com/svgjs" width="512" height="512" x="0" y="0" viewBox="0 0 511 511.99909" style="enable-background:new 0 0 512 512" xml:space="preserve" class=""><g><path xmlns="http://www.w3.org/2000/svg" d="m391.863281 41.539062c-28.464843-28.464843-67.226562-43.171874-109.164062-41.394531-4.136719.175781-7.351563 3.671875-7.175781 7.808594.175781 4.140625 3.714843 7.378906 7.808593 7.179687 37.699219-1.59375 72.464844 11.554688 97.925781 37.011719 25.457032 25.460938 38.601563 60.238281 37.015626 97.925781-.175782 4.140626 3.035156 7.636719 7.175781 7.808594.109375.007813.214843.007813.320312.007813 3.996094 0 7.320313-3.152344 7.488281-7.183594 1.769532-41.933594-12.933593-80.699219-41.394531-109.164063zm0 0" fill="#78ddff" data-original="#000000" class=""></path><path xmlns="http://www.w3.org/2000/svg" d="m281.109375 37.875c-4.140625.175781-7.351563 3.671875-7.179687 7.8125.175781 4.136719 3.707031 7.359375 7.8125 7.175781 27.613281-1.175781 53.074218 8.457031 71.707031 27.089844 18.636719 18.632813 28.253906 44.101563 27.089843 71.710937-.175781 4.136719 3.039063 7.632813 7.175782 7.808594.109375.003906.214844.007813.324218.007813 3.996094 0 7.316407-3.152344 7.484376-7.183594 1.347656-31.855469-9.828126-61.3125-31.46875-82.949219-21.636719-21.640625-51.09375-32.808594-82.945313-31.472656zm0 0" fill="#78ddff" data-original="#000000" class=""></path><path xmlns="http://www.w3.org/2000/svg" d="m349.984375 161.0625c.109375.003906.214844.007812.320313.007812 3.996093 0 7.320312-3.152343 7.488281-7.183593.917969-21.773438-6.730469-41.925781-21.542969-56.734375-14.8125-14.8125-34.953125-22.457032-56.734375-21.542969-4.140625.171875-7.351563 3.667969-7.175781 7.808594.171875 4.136719 3.691406 7.34375 7.808594 7.175781 17.542968-.730469 33.6875 5.355469 45.496093 17.164062 11.808594 11.808594 17.902344 27.964844 17.164063 45.496094-.175782 4.136719 3.035156 7.632813 7.175781 7.808594zm0 0" fill="#78ddff" data-original="#000000" class=""></path><path xmlns="http://www.w3.org/2000/svg" d="m232.800781 449.523438h-27.742187l-4.054688-14.636719c-1.105468-3.988281-5.238281-6.324219-9.230468-5.222657-3.992188 1.105469-6.332032 5.238282-5.226563 9.230469l2.945313 10.625h-103.203126l13.085938-47.21875c1.105469-3.992187-1.234375-8.125-5.226562-9.230469-3.988282-1.105468-8.125 1.234376-9.226563 5.222657l-14.195313 51.230469h-27.742187c-23.425781 0-42.484375 19.058593-42.484375 42.484374 0 11.023438 8.96875 19.992188 19.992188 19.992188h234.800781c11.023437 0 19.992187-8.96875 19.992187-19.992188 0-23.425781-19.058594-42.484374-42.484375-42.484374zm22.492188 47.476562h-234.800781c-2.753907 0-4.992188-2.238281-4.992188-4.992188 0-15.15625 12.328125-27.484374 27.484375-27.484374h189.816406c15.152344 0 27.484375 12.328124 27.484375 27.484374 0 2.753907-2.238281 4.992188-4.992187 4.992188zm0 0" fill="#78ddff" data-original="#000000" class=""></path><path xmlns="http://www.w3.org/2000/svg" d="m279.621094 264.464844 7.332031-84.015625c16.941406-1.066407 30.394531-15.1875 30.394531-32.394531 0-17.898438-14.5625-32.460938-32.460937-32.460938-17.207031 0-31.328125 13.453125-32.398438 30.394531l-84.011719 7.332031-75.289062-75.289062c-3.613281-3.613281-8.601562-5.617188-13.726562-5.445312-5.105469.148437-9.980469 2.425781-13.371094 6.246093-71.527344 80.542969-67.832032 203.363281 8.410156 279.605469 39.6875 39.6875 91.980469 59.714844 144.375 59.714844 48.265625 0 96.613281-17.003906 135.234375-51.300782 3.816406-3.390624 6.09375-8.265624 6.246094-13.371093.152343-5.109375-1.835938-10.113281-5.445313-13.726563zm-50.269532-50.269532 38.511719-38.511718c1.355469.839844 2.777344 1.582031 4.253907 2.214844l-6.34375 72.71875zm55.535157-83.601562c9.628906 0 17.460937 7.832031 17.460937 17.460938 0 9.628906-7.832031 17.460937-17.460937 17.460937-9.628907 0-17.460938-7.832031-17.460938-17.460937 0-9.628907 7.832031-17.460938 17.460938-17.460938zm-29.84375 30.230469c.632812 1.476562 1.375 2.898437 2.214843 4.253906l-38.511718 38.511719-36.421875-36.421875zm90.320312 192.210937c-.015625.582032-.195312 1.699219-1.210937 2.601563-35.785156 31.773437-80.558594 47.523437-125.28125 47.519531-48.53125-.003906-97-18.558594-133.761719-55.324219-70.640625-70.636719-74.066406-184.421875-7.804687-259.039062.902343-1.015625 2.015624-1.199219 2.601562-1.214844h.105469c.605469 0 1.660156.152344 2.566406 1.0625l261.722656 261.722656c.964844.960938 1.082031 2.085938 1.0625 2.671875zm0 0" fill="#78ddff" data-original="#000000" class=""></path></g></svg>