<svg xmlns="http://www.w3.org/2000/svg" version="1.1" xmlns:xlink="http://www.w3.org/1999/xlink" xmlns:svgjs="http://svgjs.com/svgjs" width="512" height="512" x="0" y="0" viewBox="0 0 511.99916 511" style="enable-background:new 0 0 512 512" xml:space="preserve" class=""><g><path xmlns="http://www.w3.org/2000/svg" d="m199.371094 354.441406v-65.878906c0-21.816406-17.75-39.5625-39.5625-39.5625h-104.210938c-21.816406 0-39.5625 17.746094-39.5625 39.5625v65.878906c-9.308594 3.136719-16.035156 11.945313-16.035156 22.296875v64.128907c0 10.355468 6.726562 19.160156 16.035156 22.300781v41.828125c0 4.144531 3.355469 7.5 7.5 7.5h16.03125c3.226563 0 6.09375-2.066406 7.113282-5.128906l14.324218-42.964844h93.398438l14.320312 42.964844c1.023438 3.066406 3.886719 5.128906 7.117188 5.128906h16.03125c4.140625 0 7.5-3.355469 7.5-7.5v-41.828125c9.308594-3.136719 16.03125-11.945313 16.03125-22.300781v-64.128907c0-10.351562-6.722656-19.160156-16.03125-22.296875zm-143.773438-90.441406h104.207032c13.546874 0 24.566406 11.019531 24.566406 24.5625v65.878906c-9.308594 3.136719-16.03125 11.945313-16.03125 22.296875v8.535157h-8.535156c-4.140626 0-7.5 3.355468-7.5 7.5 0 4.140624 3.359374 7.5 7.5 7.5h8.535156v16.546874c0 .285157-.230469.515626-.515625.515626h-120.242188c-.285156 0-.515625-.230469-.515625-.515626v-16.546874h80.671875c4.144531 0 7.5-3.359376 7.5-7.5 0-4.144532-3.355469-7.5-7.5-7.5h-80.671875v-8.535157c0-10.351562-6.726562-19.160156-16.03125-22.296875v-65.878906c0-13.546875 11.015625-24.5625 24.5625-24.5625zm-21.4375 233.496094h-3.125v-33.097656h14.15625zm147.085938 0-11.035156-33.097656h14.160156v33.097656zm19.15625-56.628906c0 4.707031-3.828125 8.535156-8.53125 8.535156h-168.335938c-4.707031 0-8.535156-3.828125-8.535156-8.535156v-64.128907c0-4.703125 3.828125-8.53125 8.535156-8.53125 4.703125 0 8.53125 3.828125 8.53125 8.53125v40.082031c0 .257813.011719.515626.039063.769532.402343 8.195312 7.179687 14.746094 15.476562 14.746094h120.242188c8.292969 0 15.070312-6.550782 15.476562-14.746094.023438-.253906.039063-.511719.039063-.769532v-40.082031c0-4.703125 3.828125-8.53125 8.53125-8.53125s8.53125 3.828125 8.53125 8.53125zm0 0" fill="#78ddff" data-original="#000000" class=""></path><path xmlns="http://www.w3.org/2000/svg" d="m507.9375 129.59375-248.5-128.257812c-2.15625-1.113282-4.71875-1.113282-6.878906 0l-248.496094 128.257812c-3.648438 1.878906-5.105469 6.34375-3.269531 10.015625l16.03125 32.066406c1.273437 2.539063 3.867187 4.144531 6.710937 4.144531h104.207032c2.839843 0 5.4375-1.605468 6.707031-4.144531l9.324219-18.648437 9.324218 18.648437c1.269532 2.539063 3.867188 4.144531 6.707032 4.144531h88.695312v274.8125c-9.308594 3.136719-16.03125 11.945313-16.03125 22.300782v24.5625h-8.535156c-4.140625 0-7.5 3.359375-7.5 7.5s3.359375 7.5 7.5 7.5h64.128906c4.144531 0 7.5-3.359375 7.5-7.5s-3.355469-7.5-7.5-7.5h-8.53125v-24.5625c0-10.355469-6.722656-19.160156-16.03125-22.300782v-274.8125h88.691406c2.84375 0 5.4375-1.605468 6.707032-4.144531l9.324218-18.648437 9.328125 18.648437c1.269531 2.539063 3.867188 4.144531 6.707031 4.144531h104.207032c2.839844 0 5.4375-1.605468 6.707031-4.144531l16.035156-32.066406c1.835938-3.667969.378907-8.132813-3.269531-10.015625zm-243.40625 367.902344h-17.0625v-24.5625c0-4.707032 3.828125-8.53125 8.53125-8.53125s8.53125 3.828125 8.53125 8.53125zm-141.425781-336.675782h-94.9375l-8.53125-17.0625h112.003906zm224.453125 0h-183.117188l-8.53125-17.0625h156.203125c4.140625 0 7.5-3.359374 7.5-7.5 0-4.140624-3.359375-7.5-7.5-7.5h-273.730469l217.617188-112.316406 217.613281 112.316406h-129.4375c-4.140625 0-7.5 3.359376-7.5 7.5 0 4.140626 3.359375 7.5 7.5 7.5h11.914063zm136.273437 0h-94.941406l-8.53125-17.0625h112.003906zm0 0" fill="#78ddff" data-original="#000000" class=""></path><path xmlns="http://www.w3.org/2000/svg" d="m368.222656 240.984375c-39.492187 0-71.625 32.132813-71.625 71.625 0 25.492187 13.71875 49.261719 35.804688 62.042969 3.582031 2.074218 8.171875.847656 10.246094-2.738282 2.074218-3.585937.851562-8.171874-2.734376-10.246093-17.46875-10.105469-28.316406-28.902344-28.316406-49.058594 0-31.222656 25.402344-56.628906 56.628906-56.628906 31.222657 0 56.628907 25.40625 56.628907 56.628906 0 28.683594-21.4375 52.433594-49.128907 56.117187v-12.929687l13.835938-13.835937c2.925781-2.929688 2.925781-7.675782 0-10.605469-2.929688-2.929688-7.679688-2.929688-10.605469 0l-3.230469 3.230469v-13.960938c0-4.140625-3.359374-7.5-7.5-7.5-4.140624 0-7.5 3.359375-7.5 7.5v112.742188h-24.5625c-2.152343 0-4.199218.925781-5.625 2.539062-1.421874 1.609375-2.085937 3.757812-1.820312 5.890625l7.140625 57.109375c.96875 7.746094 7.585937 13.589844 15.394531 13.589844h33.945313c7.808593 0 14.429687-5.84375 15.394531-13.589844l7.140625-57.109375c.265625-2.132813-.394531-4.28125-1.820313-5.890625-1.421874-1.613281-3.46875-2.539062-5.621093-2.539062h-24.566407v-49.523438c35.984376-3.761719 64.128907-34.269531 64.128907-71.234375 0-39.496094-32.132813-71.625-71.632813-71.625zm17.484375 256.058594c-.03125.257812-.25.453125-.511719.453125h-33.941406c-.261718 0-.480468-.195313-.511718-.453125l-6.085938-48.675781h47.136719zm0 0" fill="#78ddff" data-original="#000000" class=""></path><path xmlns="http://www.w3.org/2000/svg" d="m71.628906 320.109375h72.144532c4.144531 0 7.5-3.355469 7.5-7.5 0-4.140625-3.355469-7.5-7.5-7.5h-72.144532c-4.140625 0-7.5 3.359375-7.5 7.5 0 4.144531 3.359375 7.5 7.5 7.5zm0 0" fill="#78ddff" data-original="#000000" class=""></path></g></svg>