<svg xmlns="http://www.w3.org/2000/svg" version="1.1" xmlns:xlink="http://www.w3.org/1999/xlink" xmlns:svgjs="http://svgjs.com/svgjs" width="512" height="512" x="0" y="0" viewBox="0 0 64 64" style="enable-background:new 0 0 512 512" xml:space="preserve" class=""><g><g xmlns="http://www.w3.org/2000/svg" id="Layer_3" data-name="Layer 3"><path d="m61 8h-58a3 3 0 0 0 -3 3v32a3 3 0 0 0 3 3h25v4h-2a5.006 5.006 0 0 0 -5 5 1 1 0 0 0 1 1h20a1 1 0 0 0 1-1 5.006 5.006 0 0 0 -5-5h-2v-4h7a1 1 0 0 0 0-2h-40a1 1 0 0 1 -1-1v-32a1 1 0 0 1 1-1h58a1 1 0 0 1 1 1v8a1 1 0 0 0 2 0v-8a3 3 0 0 0 -3-3zm-20.171 46h-17.658a3.006 3.006 0 0 1 2.829-2h12a3.006 3.006 0 0 1 2.829 2zm-6.829-8v4h-4v-4z" fill="#78ddff" data-original="#000000" class=""></path><path d="m61 56h-12a3 3 0 0 1 -3-3v-28a3 3 0 0 1 3-3h12a3 3 0 0 1 3 3v28a3 3 0 0 1 -3 3zm-12-32a1 1 0 0 0 -1 1v28a1 1 0 0 0 1 1h12a1 1 0 0 0 1-1v-28a1 1 0 0 0 -1-1z" fill="#78ddff" data-original="#000000" class=""></path><path d="m55 48a5 5 0 1 1 5-5 5.006 5.006 0 0 1 -5 5zm0-8a3 3 0 1 0 3 3 3 3 0 0 0 -3-3z" fill="#78ddff" data-original="#000000" class=""></path><circle cx="51" cy="27" r="1" fill="#78ddff" data-original="#000000" class=""></circle><circle cx="55" cy="27" r="1" fill="#78ddff" data-original="#000000" class=""></circle><circle cx="59" cy="27" r="1" fill="#78ddff" data-original="#000000" class=""></circle><circle cx="51" cy="31" r="1" fill="#78ddff" data-original="#000000" class=""></circle><circle cx="55" cy="31" r="1" fill="#78ddff" data-original="#000000" class=""></circle><circle cx="59" cy="31" r="1" fill="#78ddff" data-original="#000000" class=""></circle><circle cx="51" cy="35" r="1" fill="#78ddff" data-original="#000000" class=""></circle><circle cx="55" cy="35" r="1" fill="#78ddff" data-original="#000000" class=""></circle><circle cx="59" cy="35" r="1" fill="#78ddff" data-original="#000000" class=""></circle><circle cx="51" cy="51" r="1" fill="#78ddff" data-original="#000000" class=""></circle><circle cx="55" cy="51" r="1" fill="#78ddff" data-original="#000000" class=""></circle><circle cx="59" cy="51" r="1" fill="#78ddff" data-original="#000000" class=""></circle></g></g></svg>