<svg width="22" height="20" viewBox="0 0 22 20" fill="none" xmlns="http://www.w3.org/2000/svg">
<path d="M21.2594 1.72869C20.835 1.30427 20.1471 1.30441 19.7231 1.72884L9.97354 11.48L5.48234 6.98863C5.05792 6.56435 4.37001 6.56421 3.94602 6.98849C3.5216 7.41276 3.5216 8.10068 3.94588 8.52481L9.20538 13.7846C9.40919 13.9884 9.68543 14.1028 9.97369 14.1028C10.2618 14.1028 10.5382 13.9884 10.742 13.7846L21.2597 3.26501C21.6837 2.84088 21.6837 2.15297 21.2594 1.72869Z" fill="#78DDFF"/>
<path d="M18.9136 8.69124C18.3136 8.69124 17.8272 9.17752 17.8272 9.77765V17.8272H2.17281V2.17281H14.568C15.1681 2.17281 15.6544 1.68654 15.6544 1.08641C15.6544 0.48642 15.1681 0 14.568 0H1.08641C0.48642 0 0 0.486275 0 1.08641V18.9136C0 19.5137 0.48642 20 1.08641 20H18.9136C19.5137 20 20 19.5137 20 18.9136V9.77765C20 9.17766 19.5137 8.69124 18.9136 8.69124Z" fill="#78DDFF"/>
</svg>
