<svg xmlns="http://www.w3.org/2000/svg" version="1.1" xmlns:xlink="http://www.w3.org/1999/xlink" xmlns:svgjs="http://svgjs.com/svgjs" width="512" height="512" x="0" y="0" viewBox="0 0 60 60" style="enable-background:new 0 0 512 512" xml:space="preserve" class=""><g><path xmlns="http://www.w3.org/2000/svg" d="m55 37h-1a3 3 0 0 0 -2-2.817c0-.061 0-.123 0-.183a26 26 0 1 0 -33.258 24.953 2.978 2.978 0 0 0 2.258 1.047h36a3 3 0 0 0 3-3v-1a2 2 0 0 0 -2-2h-8.026a10.088 10.088 0 0 0 2.007-2h2.019a6.006 6.006 0 0 0 6-6v-4a5.006 5.006 0 0 0 -5-5zm-3 1h-26v-1a1 1 0 0 1 1-1h24a1 1 0 0 1 1 1zm-25-4a3 3 0 0 0 -3 3v9a9.937 9.937 0 0 0 .812 3.94 15.992 15.992 0 1 1 17.188-15.94zm-25 0a24 24 0 0 1 48 0h-6a18 18 0 1 0 -18 18h.019a10.057 10.057 0 0 0 2.006 2h-8.025a2 2 0 0 0 -2 2v.615a24.049 24.049 0 0 1 -16-22.615zm56 22v1a1 1 0 0 1 -1 1h-36a1 1 0 0 1 -1-1v-1zm-24-2a8.009 8.009 0 0 1 -8-8v-6h26v6a8.009 8.009 0 0 1 -8 8zm24-8a4 4 0 0 1 -4 4h-.841a9.929 9.929 0 0 0 .841-4v-7h1a3 3 0 0 1 3 3z" fill="#78ddff" data-original="#000000" class=""></path></g></svg>