<svg xmlns="http://www.w3.org/2000/svg" version="1.1" xmlns:xlink="http://www.w3.org/1999/xlink" xmlns:svgjs="http://svgjs.com/svgjs" width="512" height="512" x="0" y="0" viewBox="0 0 512 512" style="enable-background:new 0 0 512 512" xml:space="preserve" class=""><g><g xmlns="http://www.w3.org/2000/svg"><path d="m271.596 219.191-12.046 12.046c-.739-.346-1.485-.681-2.249-.99-16.79-6.8-35.917-2.917-48.727 9.892-17.545 17.545-17.545 46.094 0 63.639 5.849 5.849 5.849 15.365 0 21.214-4.445 4.444-11.255 5.648-16.948 2.996-7.434-3.464-11.083-12.498-10.015-24.785.718-8.253-5.39-15.526-13.643-16.244-8.251-.718-15.526 5.39-16.244 13.643-1.084 12.455.858 23.733 5.417 33.043l-12.825 12.825c-5.858 5.858-5.858 15.355 0 21.213 5.857 5.858 15.355 5.859 21.213 0l12.807-12.807c.207.1.409.207.618.304 6.048 2.818 12.513 4.187 18.937 4.186 11.716-.001 23.289-4.554 31.896-13.161 17.546-17.545 17.546-46.094 0-63.64-5.848-5.849-5.848-15.365 0-21.213 4.273-4.272 10.652-5.567 16.252-3.298 6.759 2.737 10.729 10.138 10.889 20.306.131 8.283 6.924 14.903 15.235 14.761 8.283-.131 14.892-6.952 14.761-15.235-.151-9.528-2.237-18.214-5.971-25.626l11.854-11.854c5.858-5.858 5.858-15.355 0-21.213-5.856-5.86-15.354-5.86-21.211-.002z" fill="#78ddff" data-original="#000000" class=""></path><path d="m437 0c-35.708 0-66.403 25.162-73.479 60h-106.521c-3.979 0-7.793 1.581-10.606 4.394l-242 242c-5.858 5.858-5.858 15.355 0 21.213l180 180c5.857 5.858 15.355 5.859 21.213 0l242-242c2.813-2.814 4.393-6.628 4.393-10.607v-106.509c34.192-6.968 60-37.271 60-73.491 0-41.355-33.645-75-75-75zm-79.394 175.606c-5.849 5.85-15.364 5.848-21.213 0-5.862-5.863-5.863-15.35 0-21.213 5.847-5.848 15.365-5.849 21.213 0 5.863 5.863 5.863 15.35 0 21.213zm64.394 73.181-227 227-158.787-158.787 227-227h96.492l-3.796 30.912c-14.277-2.862-29.683 1.223-40.729 12.269-17.546 17.545-17.546 46.094 0 63.64 17.545 17.544 46.093 17.545 63.639 0 15.648-15.647 17.328-40.041 5.065-57.582l6.046-49.239h32.07zm30-131.367v-42.42c0-8.284-6.716-15-15-15h-42.44c6.24-17.729 23.116-30 42.44-30 24.813 0 45 20.187 45 45 0 19.555-12.541 36.228-30 42.42z" fill="#78ddff" data-original="#000000" class=""></path></g></g></svg>