<svg xmlns="http://www.w3.org/2000/svg" version="1.1" xmlns:xlink="http://www.w3.org/1999/xlink" xmlns:svgjs="http://svgjs.com/svgjs" width="512" height="512" x="0" y="0" viewBox="0 0 128 128" style="enable-background:new 0 0 512 512" xml:space="preserve" class=""><g><path xmlns="http://www.w3.org/2000/svg" id="No_Smoking" d="m64 0c-35.289 0-64 28.711-64 64s28.711 64 64 64 64-28.711 64-64-28.711-64-64-64zm56 64c0 14.002-5.202 26.788-13.727 36.617l-12.617-12.617h10.344c2.211 0 4-1.791 4-4v-16c0-2.209-1.789-4-4-4h-34.344l-42.273-42.273c9.829-8.525 22.615-13.727 36.617-13.727 30.879 0 56 25.121 56 56zm-92 16v-8h16v8zm24-8h14.344l8 8h-22.344zm25.656 0h22.344v8h-14.344zm-69.656-8c0-14.002 5.202-26.788 13.727-36.617l36.617 36.617h-34.344c-2.211 0-4 1.791-4 4v16c0 2.209 1.789 4 4 4h58.344l18.273 18.273c-9.829 8.525-22.615 13.727-36.617 13.727-30.879 0-56-25.121-56-56zm48-36c0-2.209 1.789-4 4-4s4 1.791 4 4c0 6.617 5.383 12 12 12h16c8.824 0 16 7.178 16 16 0 2.209-1.789 4-4 4s-4-1.791-4-4c0-4.412-3.59-8-8-8h-16c-11.027 0-20-8.973-20-20z" fill="#78ddff" data-original="#000000" class=""></path></g></svg>