<svg xmlns="http://www.w3.org/2000/svg" version="1.1" xmlns:xlink="http://www.w3.org/1999/xlink" xmlns:svgjs="http://svgjs.com/svgjs" width="512" height="512" x="0" y="0" viewBox="0 0 128 128" style="enable-background:new 0 0 512 512" xml:space="preserve" class=""><g><g xmlns="http://www.w3.org/2000/svg"><path d="m121.693 12.117h-115.386a1.75 1.75 0 0 0 -1.75 1.75v78.738a1.751 1.751 0 0 0 1.75 1.75h47.968v8.981h-7.512a1.75 1.75 0 1 0 0 3.5h34.474a1.75 1.75 0 0 0 0-3.5h-7.512v-8.981h14.341v17.778a3.755 3.755 0 0 0 3.75 3.75h16.584a3.754 3.754 0 0 0 3.75-3.75v-17.778h9.539a1.75 1.75 0 0 0 1.75-1.75v-78.738a1.749 1.749 0 0 0 -1.746-1.75zm-1.75 3.5v65.706h-7.789v-8.246a3.754 3.754 0 0 0 -3.75-3.75h-16.588a3.755 3.755 0 0 0 -3.75 3.75v8.246h-80.009v-65.706zm-49.718 87.719h-12.45v-8.981h12.45zm-62.168-12.481v-6.032h80.009v6.032zm100.6 21.278a.25.25 0 0 1 -.25.25h-16.591a.251.251 0 0 1 -.25-.25v-39.056a.251.251 0 0 1 .25-.25h16.584a.25.25 0 0 1 .25.25zm3.5-21.278v-6.032h7.789v6.032z" fill="#78ddff" data-original="#000000" class=""></path><path d="m100.11 94.381a6.228 6.228 0 1 0 6.228 6.228 6.235 6.235 0 0 0 -6.228-6.228zm0 8.955a2.728 2.728 0 1 1 2.728-2.727 2.73 2.73 0 0 1 -2.728 2.727z" fill="#78ddff" data-original="#000000" class=""></path><path d="m95.633 81.874h1.421a1.75 1.75 0 0 0 0-3.5h-1.421a1.75 1.75 0 0 0 0 3.5z" fill="#78ddff" data-original="#000000" class=""></path><path d="m104.588 78.374h-1.42a1.75 1.75 0 0 0 0 3.5h1.42a1.75 1.75 0 0 0 0-3.5z" fill="#78ddff" data-original="#000000" class=""></path><path d="m95.633 89.874h1.421a1.75 1.75 0 0 0 0-3.5h-1.421a1.75 1.75 0 0 0 0 3.5z" fill="#78ddff" data-original="#000000" class=""></path><path d="m104.588 86.374h-1.42a1.75 1.75 0 0 0 0 3.5h1.42a1.75 1.75 0 0 0 0-3.5z" fill="#78ddff" data-original="#000000" class=""></path></g></g></svg>